<svg xmlns="http://www.w3.org/2000/svg" id="Layer_1" data-name="Layer 1" viewBox="0 0 18 18" focusable="false" class="lazy-loaded" aria-busy="false"><defs><style>.cls-1{fill:#e94435;}.cls-1,.cls-2,.cls-3,.cls-4{fill-rule:evenodd;}.cls-2{fill:#f8bb15;}.cls-3{fill:#34a751;}.cls-4{fill:#547dbe;}</style></defs><title>Google</title><path class="cls-1" d="M9.12,3.37A5.41,5.41,0,0,1,13,4.8l2.39-2.39A8.79,8.79,0,0,0,9.12,0,9.08,9.08,0,0,0,1.05,4.77L3.78,6.93A5.62,5.62,0,0,1,9.12,3.37Z"/><path class="cls-2" d="M3.39,9a5.63,5.63,0,0,1,.39-2.06L1.05,4.77A9,9,0,0,0,0,9a9.24,9.24,0,0,0,1,4.26l2.76-2.18A5.62,5.62,0,0,1,3.39,9Z"/><path class="cls-3" d="M12.43,13.78A6.64,6.64,0,0,1,9,14.61a5.52,5.52,0,0,1-5.23-3.54L1,13.25A8.87,8.87,0,0,0,9,18a9.11,9.11,0,0,0,6.1-2.1Z"/><path class="cls-4" d="M18,9a8.84,8.84,0,0,0-.18-1.79H9v3.6h5.46l0,.22a4.11,4.11,0,0,1-2,2.76l2.68,2.12A8.87,8.87,0,0,0,18,9Z"/></svg>